<?xml version="1.0" encoding="UTF-8" standalone="no"?>
<!DOCTYPE svg PUBLIC "-//W3C//DTD SVG 1.1//EN" "http://www.w3.org/Graphics/SVG/1.1/DTD/svg11.dtd">
<svg version="1.1" xmlns="http://www.w3.org/2000/svg" xmlns:xlink="http://www.w3.org/1999/xlink" preserveAspectRatio="xMidYMid meet" viewBox="18.362338612903226 27.61016699703987 284.9848742903226 101.47058823529417"><defs><path d="M79.44 92.43C71.52 92.43 65.09 86 65.09 78.08C65.09 70.16 71.52 63.73 79.44 63.73C87.35 63.73 93.78 70.16 93.78 78.08C93.78 86 87.35 92.43 79.44 92.43Z" id="vbI1uL0TOv"></path><path d="M52.55 78.18C52.55 85.31 47.52 91.1 41.31 91.1C35.11 91.1 30.08 85.31 30.08 78.18C30.08 71.04 35.11 65.25 41.31 65.25C47.52 65.25 52.55 71.04 52.55 78.18Z" id="g2XsDoCypZ"></path><path d="M87.24 27.62L87.34 27.63L87.43 27.65L87.52 27.67L87.61 27.7L87.69 27.73L87.77 27.77L87.85 27.81L87.93 27.86L88 27.91L88.08 27.96L88.15 28.02L88.22 28.09L88.28 28.15L88.35 28.22L88.41 28.3L88.47 28.37L88.53 28.45L88.59 28.54L88.64 28.63L88.7 28.72L88.75 28.81L88.8 28.91L88.85 29.01L88.9 29.11L88.95 29.22L89 29.32L89.05 29.43L89.09 29.55L89.14 29.66L89.18 29.78L89.23 29.9L89.27 30.02L89.31 30.14L89.36 30.27L89.4 30.39L89.44 30.52L89.48 30.65L89.52 30.78L91.67 39.01L92.34 39.22L93.83 39.76L95.29 40.36L96.73 41.02L98.13 41.72L98.24 41.79L105.48 37.51L105.6 37.44L105.72 37.38L105.84 37.32L105.95 37.26L106.07 37.21L106.19 37.15L106.3 37.1L106.41 37.04L106.53 36.99L106.64 36.95L106.75 36.9L106.86 36.85L106.96 36.81L107.07 36.77L107.18 36.74L107.28 36.7L107.39 36.67L107.49 36.64L107.59 36.62L107.69 36.6L107.79 36.58L107.89 36.57L107.99 36.56L108.08 36.55L108.18 36.55L108.27 36.55L108.36 36.55L108.45 36.56L108.54 36.57L108.63 36.59L108.71 36.62L108.8 36.64L108.88 36.68L108.97 36.72L109.05 36.76L109.13 36.81L109.2 36.86L109.28 36.92L109.35 36.99L109.43 37.06L119.96 47.82L120.03 47.9L120.09 47.97L120.15 48.05L120.2 48.13L120.25 48.22L120.3 48.3L120.34 48.39L120.37 48.47L120.4 48.56L120.43 48.66L120.45 48.75L120.46 48.84L120.48 48.94L120.48 49.03L120.49 49.13L120.49 49.23L120.48 49.33L120.48 49.43L120.46 49.54L120.45 49.64L120.43 49.74L120.41 49.85L120.38 49.96L120.35 50.06L120.32 50.17L120.29 50.28L120.25 50.39L120.21 50.5L120.16 50.61L120.11 50.72L120.07 50.83L120.01 50.95L119.96 51.06L119.9 51.17L119.84 51.29L119.78 51.4L119.72 51.51L119.65 51.63L119.59 51.74L119.52 51.86L115.34 59.24L115.42 59.4L116.11 60.84L116.75 62.3L117.34 63.79L117.87 65.32L118.08 66L126.13 68.2L126.25 68.23L126.38 68.26L126.51 68.3L126.63 68.33L126.75 68.37L126.87 68.4L126.99 68.44L127.11 68.48L127.22 68.53L127.33 68.57L127.44 68.61L127.55 68.66L127.66 68.71L127.76 68.76L127.86 68.81L127.96 68.86L128.05 68.92L128.15 68.98L128.23 69.03L128.32 69.09L128.4 69.16L128.48 69.22L128.56 69.29L128.63 69.35L128.7 69.42L128.76 69.5L128.83 69.57L128.88 69.65L128.94 69.72L128.99 69.81L129.03 69.89L129.07 69.97L129.11 70.06L129.14 70.15L129.17 70.24L129.19 70.33L129.21 70.43L129.22 70.53L129.23 70.63L129.23 70.74L129.23 85.96L129.23 86.06L129.22 86.16L129.21 86.26L129.19 86.35L129.17 86.44L129.14 86.53L129.11 86.62L129.07 86.7L129.03 86.78L128.99 86.86L128.94 86.94L128.88 87.01L128.83 87.09L128.76 87.16L128.7 87.22L128.63 87.29L128.56 87.35L128.48 87.42L128.4 87.48L128.32 87.54L128.23 87.59L128.15 87.65L128.05 87.7L127.96 87.76L127.86 87.81L127.76 87.86L127.66 87.91L127.55 87.96L127.44 88.01L127.33 88.05L127.22 88.1L127.11 88.14L126.99 88.19L126.87 88.23L126.75 88.28L126.63 88.32L126.51 88.36L126.38 88.41L126.25 88.45L126.13 88.49L118.08 90.69L117.87 91.37L117.34 92.9L116.75 94.39L116.11 95.86L115.42 97.29L115.34 97.43L119.52 104.8L119.59 104.92L119.65 105.03L119.72 105.15L119.78 105.26L119.84 105.37L119.9 105.49L119.96 105.6L120.01 105.71L120.07 105.83L120.11 105.94L120.16 106.05L120.21 106.16L120.25 106.27L120.29 106.38L120.32 106.49L120.35 106.6L120.38 106.71L120.41 106.81L120.43 106.92L120.45 107.02L120.46 107.13L120.48 107.23L120.48 107.33L120.49 107.43L120.49 107.53L120.48 107.63L120.48 107.72L120.46 107.82L120.45 107.91L120.43 108.01L120.4 108.1L120.37 108.19L120.34 108.27L120.3 108.36L120.25 108.44L120.2 108.53L120.15 108.61L120.09 108.69L120.03 108.76L119.96 108.84L109.43 119.6L109.35 119.67L109.28 119.74L109.2 119.8L109.13 119.85L109.05 119.9L108.97 119.94L108.88 119.98L108.8 120.02L108.71 120.04L108.63 120.07L108.54 120.09L108.45 120.1L108.36 120.11L108.27 120.11L108.18 120.12L108.08 120.11L107.99 120.11L107.89 120.09L107.79 120.08L107.69 120.06L107.59 120.04L107.49 120.02L107.39 119.99L107.28 119.96L107.18 119.92L107.07 119.89L106.96 119.85L106.86 119.81L106.75 119.76L106.64 119.72L106.53 119.67L106.41 119.62L106.3 119.56L106.19 119.51L106.07 119.45L105.95 119.4L105.84 119.34L105.72 119.28L105.6 119.22L105.48 119.15L98.27 114.89L98.13 114.97L96.73 115.67L95.29 116.33L93.83 116.93L92.34 117.47L91.67 117.68L89.52 125.91L89.48 126.04L89.44 126.17L89.4 126.3L89.36 126.42L89.31 126.55L89.27 126.67L89.23 126.79L89.18 126.91L89.14 127.03L89.09 127.14L89.05 127.26L89 127.37L88.95 127.47L88.9 127.58L88.85 127.68L88.8 127.78L88.75 127.88L88.7 127.97L88.64 128.06L88.59 128.15L88.53 128.24L88.47 128.32L88.41 128.39L88.35 128.47L88.28 128.54L88.22 128.61L88.15 128.67L88.08 128.73L88 128.78L87.93 128.83L87.85 128.88L87.77 128.92L87.69 128.96L87.61 128.99L87.52 129.02L87.43 129.04L87.34 129.06L87.24 129.07L87.14 129.08L87.04 129.08L72.15 129.08L72.05 129.08L71.95 129.07L71.85 129.06L71.76 129.04L71.67 129.02L71.58 128.99L71.49 128.96L71.41 128.92L71.32 128.88L71.24 128.83L71.16 128.78L71.09 128.73L71.01 128.67L70.94 128.61L70.87 128.54L70.8 128.47L70.73 128.39L70.67 128.32L70.61 128.24L70.55 128.15L70.49 128.06L70.43 127.97L70.37 127.88L70.32 127.78L70.27 127.68L70.22 127.58L70.17 127.47L70.12 127.37L70.08 127.26L70.03 127.14L69.99 127.03L69.95 126.91L69.91 126.79L69.87 126.67L69.83 126.55L69.8 126.42L69.77 126.3L69.73 126.17L69.7 126.04L69.67 125.91L67.52 117.68L66.85 117.47L65.36 116.93L63.9 116.33L62.47 115.67L61.06 114.97L60.9 114.87L53.71 119.12L53.6 119.19L53.49 119.26L53.38 119.33L53.27 119.39L53.16 119.46L53.04 119.52L52.93 119.57L52.82 119.63L52.71 119.68L52.6 119.73L52.5 119.78L52.39 119.83L52.28 119.87L52.17 119.91L52.06 119.94L51.96 119.98L51.85 120.01L51.75 120.03L51.65 120.06L51.54 120.08L51.44 120.09L51.34 120.1L51.24 120.11L51.14 120.12L51.05 120.12L50.95 120.11L50.86 120.1L50.76 120.09L50.67 120.07L50.58 120.05L50.49 120.03L50.41 120L50.32 119.96L50.23 119.92L50.15 119.88L50.07 119.83L49.99 119.77L49.91 119.71L49.84 119.64L49.77 119.57L39.24 108.81L39.17 108.73L39.1 108.66L39.04 108.58L38.99 108.5L38.94 108.42L38.9 108.34L38.86 108.25L38.83 108.17L38.8 108.08L38.78 107.99L38.76 107.9L38.75 107.81L38.74 107.72L38.74 107.62L38.73 107.53L38.74 107.43L38.74 107.34L38.76 107.24L38.77 107.14L38.79 107.03L38.81 106.93L38.83 106.83L38.86 106.72L38.89 106.62L38.92 106.51L38.96 106.4L39 106.29L39.04 106.18L39.08 106.07L39.13 105.96L39.17 105.84L39.22 105.73L39.27 105.61L39.33 105.49L39.38 105.38L39.44 105.26L39.5 105.14L39.56 105.02L39.61 104.9L39.68 104.77L43.84 97.42L43.77 97.29L43.08 95.86L42.44 94.39L41.85 92.9L41.33 91.37L41.12 90.69L33.07 88.49L32.94 88.45L32.81 88.41L32.69 88.36L32.56 88.32L32.44 88.28L32.32 88.23L32.2 88.19L32.09 88.14L31.97 88.1L31.86 88.05L31.75 88.01L31.64 87.96L31.54 87.91L31.43 87.86L31.33 87.81L31.23 87.76L31.14 87.7L31.05 87.65L30.96 87.59L30.87 87.54L30.79 87.48L30.71 87.42L30.64 87.35L30.56 87.29L30.49 87.22L30.43 87.16L30.37 87.09L30.31 87.01L30.26 86.94L30.21 86.86L30.16 86.78L30.12 86.7L30.09 86.62L30.05 86.53L30.03 86.44L30.01 86.35L29.99 86.26L29.97 86.16L29.97 86.06L29.96 85.96L29.96 70.74L29.97 70.63L29.97 70.53L29.99 70.43L30.01 70.33L30.03 70.24L30.05 70.15L30.09 70.06L30.12 69.97L30.16 69.89L30.21 69.81L30.26 69.72L30.31 69.65L30.37 69.57L30.43 69.5L30.49 69.42L30.56 69.35L30.64 69.29L30.71 69.22L30.79 69.16L30.87 69.09L30.96 69.03L31.05 68.98L31.14 68.92L31.23 68.86L31.33 68.81L31.43 68.76L31.54 68.71L31.64 68.66L31.75 68.61L31.86 68.57L31.97 68.53L32.09 68.48L32.2 68.44L32.32 68.4L32.44 68.37L32.56 68.33L32.69 68.3L32.81 68.26L32.94 68.23L33.07 68.2L41.12 66L41.33 65.32L41.85 63.79L42.44 62.3L43.08 60.84L43.77 59.4L43.85 59.26L39.68 51.89L39.61 51.76L39.56 51.64L39.5 51.52L39.44 51.4L39.38 51.28L39.33 51.17L39.27 51.05L39.22 50.93L39.17 50.82L39.13 50.7L39.08 50.59L39.04 50.48L39 50.37L38.96 50.26L38.92 50.15L38.89 50.04L38.86 49.94L38.83 49.83L38.81 49.73L38.79 49.63L38.77 49.52L38.76 49.42L38.74 49.33L38.74 49.23L38.73 49.13L38.74 49.04L38.74 48.94L38.75 48.85L38.76 48.76L38.78 48.67L38.8 48.58L38.83 48.49L38.86 48.41L38.9 48.32L38.94 48.24L38.99 48.16L39.04 48.08L39.1 48L39.17 47.93L39.24 47.85L49.77 37.09L49.84 37.02L49.91 36.95L49.99 36.89L50.07 36.84L50.15 36.78L50.23 36.74L50.32 36.7L50.41 36.66L50.49 36.63L50.58 36.61L50.67 36.59L50.76 36.57L50.86 36.56L50.95 36.55L51.05 36.55L51.14 36.55L51.24 36.55L51.34 36.56L51.44 36.57L51.54 36.59L51.65 36.6L51.75 36.63L51.85 36.65L51.96 36.68L52.06 36.72L52.17 36.75L52.28 36.79L52.39 36.83L52.5 36.88L52.6 36.93L52.71 36.98L52.82 37.03L52.93 37.09L53.04 37.14L53.16 37.2L53.27 37.27L53.38 37.33L53.49 37.4L53.6 37.47L53.71 37.54L60.92 41.8L61.06 41.72L62.47 41.02L63.9 40.36L65.36 39.76L66.85 39.22L67.52 39.01L69.67 30.78L69.7 30.65L69.73 30.52L69.77 30.39L69.8 30.27L69.83 30.14L69.87 30.02L69.91 29.9L69.95 29.78L69.99 29.66L70.03 29.55L70.08 29.43L70.12 29.32L70.17 29.22L70.22 29.11L70.27 29.01L70.32 28.91L70.37 28.81L70.43 28.72L70.49 28.63L70.55 28.54L70.61 28.45L70.67 28.37L70.73 28.3L70.8 28.22L70.87 28.15L70.94 28.09L71.01 28.02L71.09 27.96L71.16 27.91L71.24 27.86L71.32 27.81L71.41 27.77L71.49 27.73L71.58 27.7L71.67 27.67L71.76 27.65L71.85 27.63L71.95 27.62L72.05 27.61L72.15 27.61L87.04 27.61L87.14 27.61L87.24 27.62ZM77.82 56.22L76.94 56.31L76.07 56.44L75.22 56.6L74.38 56.79L73.55 57.02L72.73 57.28L71.93 57.57L71.14 57.89L70.37 58.25L69.62 58.63L68.88 59.04L68.16 59.47L67.46 59.94L66.77 60.43L66.11 60.95L65.47 61.49L64.84 62.06L64.24 62.65L63.66 63.26L63.11 63.9L62.58 64.56L62.07 65.24L61.59 65.94L61.14 66.65L60.71 67.39L60.31 68.14L59.93 68.92L59.59 69.71L59.27 70.51L58.99 71.33L58.74 72.16L58.51 73.01L58.32 73.87L58.17 74.75L58.04 75.63L57.95 76.52L57.9 77.43L57.88 78.35L57.9 79.26L57.95 80.17L58.04 81.06L58.17 81.95L58.32 82.82L58.51 83.68L58.74 84.53L58.99 85.36L59.27 86.18L59.59 86.99L59.93 87.77L60.31 88.55L60.71 89.3L61.14 90.04L61.59 90.76L62.07 91.45L62.58 92.13L63.11 92.79L63.66 93.43L64.24 94.04L64.84 94.63L65.47 95.2L66.11 95.74L66.77 96.26L67.46 96.75L68.16 97.22L68.88 97.65L69.62 98.06L70.37 98.45L71.14 98.8L71.93 99.12L72.73 99.41L73.55 99.67L74.38 99.9L75.22 100.09L76.07 100.25L76.94 100.38L77.82 100.47L78.7 100.52L79.6 100.54L80.49 100.52L81.38 100.47L82.25 100.38L83.12 100.25L83.97 100.09L84.82 99.9L85.64 99.67L86.46 99.41L87.26 99.12L88.05 98.8L88.82 98.45L89.58 98.06L90.31 97.65L91.03 97.22L91.74 96.75L92.42 96.26L93.08 95.74L93.73 95.2L94.35 94.63L94.95 94.04L95.53 93.43L96.08 92.79L96.62 92.13L97.12 91.45L97.6 90.76L98.06 90.04L98.49 89.3L98.89 88.55L99.26 87.77L99.6 86.99L99.92 86.18L100.2 85.36L100.46 84.53L100.68 83.68L100.87 82.82L101.03 81.95L101.15 81.06L101.24 80.17L101.29 79.26L101.31 78.35L101.29 77.43L101.24 76.52L101.15 75.63L101.03 74.75L100.87 73.87L100.68 73.01L100.46 72.16L100.2 71.33L99.92 70.51L99.6 69.71L99.26 68.92L98.89 68.14L98.49 67.39L98.06 66.65L97.6 65.94L97.12 65.24L96.62 64.56L96.08 63.9L95.53 63.26L94.95 62.65L94.35 62.06L93.73 61.49L93.08 60.95L92.42 60.43L91.74 59.94L91.03 59.47L90.31 59.04L89.58 58.63L88.82 58.25L88.05 57.89L87.26 57.57L86.46 57.28L85.64 57.02L84.82 56.79L83.97 56.6L83.12 56.44L82.25 56.31L81.38 56.22L80.49 56.17L79.6 56.15L78.7 56.17L77.82 56.22Z" id="eptVY3FGNi"></path><path d="M31.9 93.56L31.9 115.79L18.36 115.79L18.36 57.34L31.9 57.34C31.9 61.06 31.9 63.13 31.9 63.54C34.69 59.84 37.48 58.64 38.1 58.1C41.5 56.32 45.14 56.5 45.92 56.32C53.75 56.32 57.49 61.94 58.77 62.56C63.8 68.76 63.3 76.95 63.8 78.55C63.8 88.34 59.28 92.98 58.77 94.58C53.75 100.78 47.21 100.16 45.92 100.78C41.5 100.78 38.88 99.21 38.1 99.04C35.83 97.86 33.76 96.03 31.9 93.56L31.9 93.56ZM40.89 66.15C36.55 66.15 34.87 69.04 34.2 69.37C31.9 72.54 32.13 77.63 31.9 78.55C31.9 84.56 33.97 86.85 34.2 87.78C36.55 90.95 40.22 90.63 40.89 90.95C45.24 90.95 46.85 88.09 47.51 87.78C49.81 84.6 49.58 79.47 49.81 78.55C49.81 72.5 47.74 70.25 47.51 69.33C46 67.21 43.79 66.15 40.89 66.15C40.89 66.15 40.89 66.15 40.89 66.15Z" id="s3tIaUYq2F"></path><path d="M131.91 58.67C131.91 64.84 131.91 68.26 131.91 68.95C127.57 67.14 124.36 66.5 123.52 66.23C119.48 65.32 116.65 65.41 115.89 65.32C112.03 65.32 110.71 66.21 110.14 66.3C108.29 67.25 108.47 68.96 108.29 69.25C108.29 70.88 109.55 71.5 109.69 71.75C110.64 72.33 112.34 72.76 114.79 73.03C116.22 73.24 117.01 73.35 117.17 73.37C127.57 74.7 129.76 77.29 131.16 77.72C134.75 80.74 134.39 86.26 134.75 87.21C134.75 93.97 130.26 96.36 129.76 97.38C124.77 100.78 116.35 100.44 114.86 100.78C110.67 100.78 107.04 100.17 106.17 100.1C103.2 99.67 100.13 99.02 96.98 98.13C96.98 91.96 96.98 88.54 96.98 87.85C101.03 89.82 104.43 90.5 105.26 90.8C109.53 91.78 113.05 91.68 113.92 91.78C117.89 91.78 119.29 90.8 119.89 90.69C121.9 89.59 121.7 87.76 121.9 87.44C121.9 85.62 120.64 85.02 120.5 84.75C119.59 84.15 117.76 83.68 115.02 83.35C113.59 83.17 112.79 83.07 112.63 83.05C103.6 81.92 101.24 79.27 99.97 78.85C96.34 75.79 96.7 70.48 96.34 69.55C96.34 62.83 100.49 60.57 100.95 59.57C105.56 56.32 113.68 56.65 115.09 56.32C118.83 56.32 122.17 56.83 122.95 56.89C125.7 57.27 128.69 57.86 131.91 58.67L131.91 58.67Z" id="gB84RaBO3b"></path><path d="M159.74 45.32L159.74 57.34L173.68 57.34L173.68 67.02L159.74 67.02C159.74 77.8 159.74 83.78 159.74 84.98C159.74 87.93 160.79 88.58 160.91 88.98C161.69 89.67 163.24 90.01 165.56 90.01L172.51 90.01L172.51 99.68C165.55 99.68 161.68 99.68 160.91 99.68C152.89 99.68 150.67 96.69 149.53 96.36C147.31 94.11 146.2 90.32 146.2 84.98L146.2 67.02L139.47 67.02L139.47 57.34L146.2 57.34L146.2 45.32L159.74 45.32L159.74 45.32Z" id="g6cLVawrP1"></path><path d="M216.44 80.01C216.44 87.68 211.19 93.9 204.72 93.9C198.25 93.9 193.01 87.68 193.01 80.01C193.01 72.34 198.25 66.12 204.72 66.12C211.19 66.12 216.44 72.34 216.44 80.01Z" id="XAIKXTpo8l"></path><path d="M195.53 115.79L182 115.79L182 57.34L195.53 57.34C195.53 61.06 195.53 63.13 195.53 63.54C198.33 59.84 201.11 58.64 201.73 58.1C205.14 56.32 208.78 56.5 209.56 56.32C217.38 56.32 221.13 61.94 222.41 62.56C227.44 68.76 226.94 76.95 227.44 78.55C227.44 88.34 222.92 92.98 222.41 94.58C217.38 100.78 210.84 100.16 209.56 100.78C205.14 100.78 202.52 99.21 201.73 99.04C199.47 97.86 197.4 96.03 195.53 93.56L195.53 115.79ZM197.84 69.37C195.53 72.54 195.77 77.63 195.53 78.55C195.53 84.56 197.61 86.85 197.84 87.78C200.18 90.95 203.86 90.63 204.53 90.95C208.88 90.95 210.49 88.09 211.15 87.78C213.45 84.6 213.22 79.47 213.45 78.55C213.45 72.5 211.38 70.25 211.15 69.33C209.64 67.21 207.43 66.15 204.53 66.15C200.52 68.08 198.29 69.15 197.84 69.37Z" id="XweOeYSh6h"></path><path d="M250.08 82.07C247.97 83.5 248.18 85.88 247.97 86.3C247.97 88.87 249.5 89.94 249.67 90.35C251.41 91.78 253.99 91.64 254.47 91.78C258.29 91.78 260.25 89.33 260.9 89.06C262.63 87.22 263.5 84.93 263.5 82.18L263.5 80.63L256.47 80.63C252.64 81.49 250.51 81.97 250.08 82.07ZM277.15 99.68L263.5 99.68C263.5 95.92 263.5 93.83 263.5 93.41C260.78 97.26 257.99 98.48 257.38 99.04C253.98 100.78 249.93 100.61 249.1 100.78C242.52 100.78 239.47 97.34 238.4 96.96C234.32 93.11 234.73 87.98 234.32 86.98C234.32 79.53 238.91 77.15 239.42 76.06C242.85 73.74 248.22 72.58 255.53 72.58L263.5 72.58C263.5 71.94 263.5 71.59 263.5 71.52C263.5 68.31 261.22 67.3 260.97 66.83C258.44 65.32 253.86 65.47 253.07 65.32C248.72 65.32 245.79 66.1 244.98 66.19C242.49 66.77 240.17 67.64 238.02 68.8C238.02 62.61 238.02 59.17 238.02 58.48C242.37 57.42 245.88 57.05 246.76 56.89C251.14 56.32 254.65 56.38 255.53 56.32C266.98 56.32 270.39 60.41 272.05 60.86C275.45 63.86 277.15 68.75 277.15 75.53L277.15 99.68Z" id="jubt9rVttE"></path><path d="M289.81 40.86L303.35 40.86L303.35 99.68L289.81 99.68L289.81 40.86L289.81 40.86Z" id="pE0gIUrGID"></path></defs><g visibility="inherit"><g visibility="inherit"><use xlink:href="#vbI1uL0TOv" opacity="1" fill="#ffffff" fill-opacity="1"></use><g><use xlink:href="#vbI1uL0TOv" opacity="1" fill-opacity="0" stroke=" #ffffff" stroke-width="1" stroke-opacity="0"></use></g></g><g visibility="inherit"><use xlink:href="#g2XsDoCypZ" opacity="1" fill="#ffffff" fill-opacity="1"></use><g><use xlink:href="#g2XsDoCypZ" opacity="1" fill-opacity="0" stroke=" #ffffff" stroke-width="1" stroke-opacity="0"></use></g></g><g visibility="inherit"><use xlink:href="#eptVY3FGNi" opacity="1" fill="#249100" fill-opacity="1"></use></g><g visibility="inherit"><use xlink:href="#s3tIaUYq2F" opacity="1" fill=" #ffffff" fill-opacity="1"></use><g><use xlink:href="#s3tIaUYq2F" opacity="1" fill-opacity="0" stroke=" #ffffff" stroke-width="1" stroke-opacity="0"></use></g></g><g visibility="inherit"><use xlink:href="#gB84RaBO3b" opacity="1" fill=" #ffffff" fill-opacity="1"></use><g><use xlink:href="#gB84RaBO3b" opacity="1" fill-opacity="0" stroke=" #ffffff" stroke-width="1" stroke-opacity="0"></use></g></g><g visibility="inherit"><use xlink:href="#g6cLVawrP1" opacity="1" fill=" #ffffff" fill-opacity="1"></use><g><use xlink:href="#g6cLVawrP1" opacity="1" fill-opacity="0" stroke=" #ffffff" stroke-width="1" stroke-opacity="0"></use></g></g><g visibility="inherit"><use xlink:href="#XAIKXTpo8l" opacity="1" fill="#249100" fill-opacity="1"></use><g><use xlink:href="#XAIKXTpo8l" opacity="1" fill-opacity="0" stroke=" #ffffff" stroke-width="1" stroke-opacity="0"></use></g></g><g visibility="inherit"><use xlink:href="#XweOeYSh6h" opacity="1" fill=" #ffffff" fill-opacity="1"></use><g><use xlink:href="#XweOeYSh6h" opacity="1" fill-opacity="0" stroke=" #ffffff" stroke-width="1" stroke-opacity="0"></use></g></g><g visibility="inherit"><use xlink:href="#jubt9rVttE" opacity="1" fill=" #ffffff" fill-opacity="1"></use><g><use xlink:href="#jubt9rVttE" opacity="1" fill-opacity="0" stroke=" #ffffff" stroke-width="1" stroke-opacity="0"></use></g></g><g visibility="inherit"><use xlink:href="#pE0gIUrGID" opacity="1" fill=" #ffffff" fill-opacity="1"></use><g><use xlink:href="#pE0gIUrGID" opacity="1" fill-opacity="0" stroke=" #ffffff" stroke-width="1" stroke-opacity="0"></use></g></g></g></svg>
