<?xml version="1.0" encoding="UTF-8" standalone="no"?>
<svg
   xmlns:bx="https://boxy-svg.com"
   xmlns:dc="http://purl.org/dc/elements/1.1/"
   xmlns:cc="http://creativecommons.org/ns#"
   xmlns:rdf="http://www.w3.org/1999/02/22-rdf-syntax-ns#"
   xmlns:svg="http://www.w3.org/2000/svg"
   xmlns="http://www.w3.org/2000/svg"
   xmlns:sodipodi="http://sodipodi.sourceforge.net/DTD/sodipodi-0.dtd"
   xmlns:inkscape="http://www.inkscape.org/namespaces/inkscape"
   viewBox="0 0 310 120"
   id="svg3335"
   version="1.1"
   inkscape:version="0.91 r13725"
   sodipodi:docname="postpal_inkscape.svg">
  <metadata
     id="metadata3351">
    <rdf:RDF>
      <cc:Work
         rdf:about="">
        <dc:format>image/svg+xml</dc:format>
        <dc:type
           rdf:resource="http://purl.org/dc/dcmitype/StillImage" />
        <dc:title></dc:title>
      </cc:Work>
    </rdf:RDF>
  </metadata>
  <defs
     id="defs3349" />
  <sodipodi:namedview
     pagecolor="#ffffff"
     bordercolor="#666666"
     borderopacity="1"
     objecttolerance="10"
     gridtolerance="10"
     guidetolerance="10"
     inkscape:pageopacity="0"
     inkscape:pageshadow="2"
     inkscape:window-width="1680"
     inkscape:window-height="1026"
     id="namedview3347"
     showgrid="false"
     showborder="true"
     inkscape:zoom="0.76129032"
     inkscape:cx="155"
     inkscape:cy="60"
     inkscape:window-x="0"
     inkscape:window-y="24"
     inkscape:window-maximized="1"
     inkscape:current-layer="text3345" />
  <g
     transform="translate(-3,2)"
     id="g3337">
    <g
       transform="matrix(0.386679,0,0,0.386679,-3.332355,3.758543)"
       id="g3339">
      <circle
         cx="206.366"
         cy="142.536"
         style="fill:#a61a0d"
         id="ellipse3341"
         r="38.345001" />
      <path
         d="m 206.353,143.416 m -129.916,0 a 129.916,129.916 0 1 0 259.832,0 129.916,129.916 0 1 0 -259.832,0 z m 129.916,0 m -77.95,0 a 77.95,77.95 0 0 1 155.9,0 77.95,77.95 0 0 1 -155.9,0 z"
         style="fill:#249100"
         bx:shape="ring 206.353 143.416 77.95 77.95 129.916 129.916 1@42eb560f"
         id="path3343"
         inkscape:connector-curvature="0" />
    </g>
    <g
       style="font-weight:bold;font-size:80px;font-family:Sans-Serif;white-space:pre"
       id="text3345">
      <path
         d="m 24.592125,72.618874 0,22.96875 -13.984375,0 0,-60.390625 13.984375,0 0,6.40625 q 2.890625,-3.828125 6.40625,-5.625 3.515625,-1.835938 8.085937,-1.835938 8.085938,0 13.28125,6.445313 5.195313,6.40625 5.195313,16.523437 0,10.117188 -5.195313,16.5625 -5.195312,6.40625 -13.28125,6.40625 -4.570312,0 -8.085937,-1.796875 -3.515625,-1.835937 -6.40625,-5.664062 z M 33.889,44.298561 q -4.492188,0 -6.914063,3.320313 -2.382812,3.28125 -2.382812,9.492187 0,6.210938 2.382812,9.53125 2.421875,3.28125 6.914063,3.28125 4.492187,0 6.835937,-3.28125 2.382813,-3.28125 2.382813,-9.53125 0,-6.25 -2.382813,-9.53125 -2.34375,-3.28125 -6.835937,-3.28125 z"
         style="font-weight:bold;font-size:80px;font-family:Sans-Serif;white-space:pre"
         id="path3373" />
      <path
         d="m 129.94369,36.564186 0,10.625 q -4.49219,-1.875 -8.67188,-2.8125 -4.17969,-0.9375 -7.89062,-0.9375 -3.98438,0 -5.9375,1.015625 -1.91407,0.976563 -1.91407,3.046875 0,1.679688 1.44532,2.578125 1.48437,0.898438 5.27343,1.328125 l 2.46094,0.351563 q 10.74219,1.367187 14.45313,4.492187 3.71093,3.125 3.71093,9.804688 0,6.992187 -5.15625,10.507812 -5.15625,3.515625 -15.39062,3.515625 -4.33594,0 -8.98438,-0.703125 -4.60937,-0.664062 -9.492183,-2.03125 l 0,-10.625 q 4.179688,2.03125 8.554683,3.046875 4.41407,1.015625 8.94532,1.015625 4.10156,0 6.17187,-1.132812 2.07031,-1.132813 2.07031,-3.359375 0,-1.875 -1.44531,-2.773438 -1.40625,-0.9375 -5.66406,-1.445312 l -2.46094,-0.3125 q -9.33594,-1.171875 -13.085935,-4.335938 -3.75,-3.164062 -3.75,-9.609375 0,-6.953125 4.765625,-10.3125 4.76562,-3.359375 14.60937,-3.359375 3.86719,0 8.125,0.585938 4.25782,0.585937 9.25782,1.835937 z"
         style="font-weight:bold;font-size:80px;font-family:Sans-Serif;white-space:pre"
         id="path3375" />
      <path
         d="m 158.69369,22.775124 0,12.421875 14.41406,0 0,10 -14.41406,0 0,18.554687 q 0,3.046875 1.21093,4.140625 1.21094,1.054688 4.80469,1.054688 l 7.1875,0 0,10 -11.99219,0 q -8.28125,0 -11.75781,-3.4375 -3.4375,-3.476563 -3.4375,-11.757813 l 0,-18.554687 -6.95312,0 0,-10 6.95312,0 0,-12.421875 13.98438,0 z"
         style="font-weight:bold;font-size:80px;font-family:Sans-Serif;white-space:pre"
         id="path3377" />
      <path
         d="m 195.68587,72.618874 0,22.96875 -13.98437,0 0,-60.390625 13.98437,0 0,6.40625 q 2.89063,-3.828125 6.40625,-5.625 3.51563,-1.835938 8.08594,-1.835938 8.08594,0 13.28125,6.445313 5.19531,6.40625 5.19531,16.523437 0,10.117188 -5.19531,16.5625 -5.19531,6.40625 -13.28125,6.40625 -4.57031,0 -8.08594,-1.796875 -3.51562,-1.835937 -6.40625,-5.664062 z m 9.29688,-28.320313 q -4.49219,0 -6.91406,3.320313 -2.38282,3.28125 -2.38282,9.492187 0,6.210938 2.38282,9.53125 2.42187,3.28125 6.91406,3.28125 4.49219,0 6.83594,-3.28125 2.38281,-3.28125 2.38281,-9.53125 0,-6.25 -2.38281,-9.53125 -2.34375,-3.28125 -6.83594,-3.28125 z"
         style="font-weight:bold;font-size:80px;font-family:Sans-Serif;white-space:pre"
         id="path3379" />
      <path
         d="m 258.65462,59.259499 q -4.375,0 -6.60156,1.484375 -2.1875,1.484375 -2.1875,4.375 0,2.65625 1.75781,4.179687 1.79688,1.484375 4.96094,1.484375 3.94531,0 6.64063,-2.8125 2.69531,-2.851562 2.69531,-7.109375 l 0,-1.601562 -7.26563,0 z m 21.36719,-5.273438 0,24.960938 -14.10156,0 0,-6.484375 q -2.8125,3.984375 -6.32813,5.820312 -3.51562,1.796875 -8.55468,1.796875 -6.79688,0 -11.05469,-3.945312 -4.21875,-3.984375 -4.21875,-10.3125 0,-7.695313 5.27344,-11.289063 5.3125,-3.59375 16.64062,-3.59375 l 8.24219,0 0,-1.09375 q 0,-3.320312 -2.61719,-4.84375 -2.61719,-1.5625 -8.16406,-1.5625 -4.49219,0 -8.35938,0.898438 -3.86718,0.898437 -7.1875,2.695312 l 0,-10.664062 q 4.49219,-1.09375 9.02344,-1.640625 4.53125,-0.585938 9.0625,-0.585938 11.83594,0 17.07031,4.6875 5.27344,4.648438 5.27344,15.15625 z"
         style="font-weight:bold;font-size:80px;font-family:Sans-Serif;white-space:pre"
         id="path3381" />
      <path
         d="m 293.10775,18.165749 13.98437,0 0,60.78125 -13.98437,0 0,-60.78125 z"
         style="font-weight:bold;font-size:80px;font-family:Sans-Serif;white-space:pre"
         id="path3383" />
    </g>
  </g>
</svg>
